<?xml version="1.0" standalone="no"?>
<!DOCTYPE svg PUBLIC "-//W3C//DTD SVG 20010904//EN"
 "http://www.w3.org/TR/2001/REC-SVG-20010904/DTD/svg10.dtd">
<svg version="1.0" xmlns="http://www.w3.org/2000/svg"
 width="64.000000pt" height="64.000000pt" viewBox="0 0 64.000000 64.000000"
 preserveAspectRatio="xMidYMid meet">

<g transform="translate(0.000000,64.000000) scale(0.100000,-0.100000)"
fill="#000000" stroke="none">
<path d="M82 558 c-16 -16 -16 -180 0 -196 16 -16 180 -16 196 0 16 16 16 180
0 196 -7 7 -44 12 -98 12 -54 0 -91 -5 -98 -12z"/>
<path d="M362 558 c-16 -16 -16 -180 0 -196 16 -16 180 -16 196 0 16 16 16
180 0 196 -7 7 -44 12 -98 12 -54 0 -91 -5 -98 -12z"/>
<path d="M82 278 c-16 -16 -16 -180 0 -196 16 -16 180 -16 196 0 16 16 16 180
0 196 -16 16 -180 16 -196 0z"/>
<path d="M415 281 c-50 -21 -77 -89 -56 -143 12 -32 65 -68 99 -68 55 0 112
56 112 110 0 74 -85 129 -155 101z"/>
</g>
</svg>
