<?xml version="1.0" standalone="no"?>
<!DOCTYPE svg PUBLIC "-//W3C//DTD SVG 20010904//EN"
 "http://www.w3.org/TR/2001/REC-SVG-20010904/DTD/svg10.dtd">
<svg version="1.0" xmlns="http://www.w3.org/2000/svg"
 width="64.000000pt" height="64.000000pt" viewBox="0 0 64.000000 64.000000"
 preserveAspectRatio="xMidYMid meet">

<g transform="translate(0.000000,64.000000) scale(0.100000,-0.100000)"
fill="#000000" stroke="none">
<path d="M122 628 c-8 -8 -12 -60 -12 -169 l0 -158 -42 -3 -43 -3 -3 -109 c-3
-120 -1 -126 56 -126 24 0 32 -4 32 -18 0 -39 16 -42 257 -42 219 0 233 1 243
19 6 12 10 116 10 268 l0 249 -53 52 -53 52 -190 0 c-134 0 -194 -4 -202 -12z
m378 -38 c0 -39 32 -70 70 -70 l30 0 -2 -247 -3 -248 -230 0 c-211 0 -230 1
-233 18 -3 15 8 17 125 17 87 0 133 4 141 12 13 13 17 183 6 212 -5 14 -27 16
-140 16 l-134 0 0 153 c0 85 3 157 7 160 3 4 87 7 185 7 l178 0 0 -30z m71
-48 c-19 -6 -51 19 -51 40 0 21 2 20 30 -7 17 -17 27 -31 21 -33z m-191 -357
l0 -95 -170 0 -170 0 0 95 0 95 170 0 170 0 0 -95z"/>
<path d="M175 560 c-3 -5 0 -13 7 -15 25 -10 258 0 258 10 0 14 -256 19 -265
5z"/>
<path d="M170 500 c0 -6 51 -10 134 -10 79 0 137 4 141 10 4 6 -43 10 -134 10
-87 0 -141 -4 -141 -10z"/>
<path d="M170 450 c0 -6 70 -10 190 -10 120 0 190 4 190 10 0 6 -70 10 -190
10 -120 0 -190 -4 -190 -10z"/>
<path d="M177 404 c-19 -19 21 -24 189 -24 144 0 185 3 182 13 -4 9 -51 13
-184 15 -99 1 -183 -1 -187 -4z"/>
<path d="M170 340 c0 -6 70 -10 190 -10 120 0 190 4 190 10 0 6 -70 10 -190
10 -120 0 -190 -4 -190 -10z"/>
<path d="M440 290 c0 -5 25 -10 55 -10 30 0 55 5 55 10 0 6 -25 10 -55 10 -30
0 -55 -4 -55 -10z"/>
<path d="M447 244 c-17 -17 -3 -24 49 -24 40 0 55 4 52 13 -5 13 -89 22 -101
11z"/>
<path d="M440 180 c0 -5 25 -10 55 -10 30 0 55 5 55 10 0 6 -25 10 -55 10 -30
0 -55 -4 -55 -10z"/>
<path d="M440 130 c0 -5 25 -10 55 -10 30 0 55 5 55 10 0 6 -25 10 -55 10 -30
0 -55 -4 -55 -10z"/>
<path d="M447 84 c-17 -17 -3 -24 49 -24 40 0 55 4 52 13 -5 13 -89 22 -101
11z"/>
<path d="M182 234 c-26 -18 -31 -84 -8 -104 24 -19 58 -8 69 23 20 60 -19 111
-61 81z m38 -55 c0 -33 -3 -40 -17 -37 -32 6 -30 78 2 78 11 0 15 -11 15 -41z"/>
<path d="M70 196 c0 -65 7 -76 46 -76 19 0 34 5 34 10 0 6 -11 10 -25 10 -23
0 -25 3 -25 50 0 38 -4 50 -15 50 -11 0 -15 -12 -15 -44z"/>
<path d="M274 226 c-10 -27 1 -89 19 -100 22 -14 51 3 55 33 3 16 -2 21 -17
21 -12 0 -21 -4 -21 -10 0 -5 5 -10 12 -10 9 0 9 -3 1 -11 -18 -18 -33 -1 -33
37 0 27 4 34 20 34 11 0 20 -5 20 -11 0 -5 4 -8 10 -4 5 3 7 12 3 20 -7 19
-62 20 -69 1z"/>
</g>
</svg>
