<?xml version="1.0" standalone="no"?>
<!DOCTYPE svg PUBLIC "-//W3C//DTD SVG 20010904//EN"
 "http://www.w3.org/TR/2001/REC-SVG-20010904/DTD/svg10.dtd">
<svg version="1.0" xmlns="http://www.w3.org/2000/svg"
 width="64.000000pt" height="64.000000pt" viewBox="0 0 64.000000 64.000000"
 preserveAspectRatio="xMidYMid meet">

<g transform="translate(0.000000,64.000000) scale(0.100000,-0.100000)"
fill="#000000" stroke="none">
<path d="M97 634 c-4 -4 -7 -64 -7 -134 0 -119 1 -128 23 -148 13 -12 29 -22
35 -22 9 0 12 -41 12 -149 0 -157 6 -181 49 -181 36 0 41 20 41 177 0 120 3
153 13 153 8 0 23 10 35 23 20 21 22 34 22 150 0 106 -3 129 -15 134 -9 3 -19
2 -23 -2 -4 -3 -9 -55 -12 -113 -4 -86 -8 -107 -20 -107 -12 0 -16 21 -20 110
-5 102 -7 110 -25 110 -18 0 -20 -8 -25 -110 -4 -89 -8 -110 -20 -110 -12 0
-16 21 -20 110 -4 89 -8 110 -20 113 -9 1 -19 0 -23 -4z"/>
<path d="M476 608 c-47 -47 -77 -135 -83 -245 l-6 -93 37 0 36 0 0 -123 c0
-126 6 -147 41 -147 10 0 25 7 33 16 14 13 16 56 16 320 0 302 0 304 -21 304
-12 0 -36 -15 -53 -32z"/>
</g>
</svg>
